<?xml version="1.0" encoding="UTF-8" standalone="no"?>
<!-- Created with Inkscape (http://www.inkscape.org/) -->

<svg
   xmlns:dc="http://purl.org/dc/elements/1.1/"
   xmlns:cc="http://creativecommons.org/ns#"
   xmlns:rdf="http://www.w3.org/1999/02/22-rdf-syntax-ns#"
   xmlns:svg="http://www.w3.org/2000/svg"
   xmlns="http://www.w3.org/2000/svg"
   xmlns:sodipodi="http://sodipodi.sourceforge.net/DTD/sodipodi-0.dtd"
   xmlns:inkscape="http://www.inkscape.org/namespaces/inkscape"
   width="744.09448819"
   height="1052.3622047"
   id="svg3129"
   version="1.1"
   inkscape:version="0.47 r22583"
   sodipodi:docname="New document 10">
  <defs
     id="defs3131">
    <inkscape:perspective
       sodipodi:type="inkscape:persp3d"
       inkscape:vp_x="0 : 526.18109 : 1"
       inkscape:vp_y="0 : 1000 : 0"
       inkscape:vp_z="744.09448 : 526.18109 : 1"
       inkscape:persp3d-origin="372.04724 : 350.78739 : 1"
       id="perspective3137" />
    <inkscape:perspective
       id="perspective3124"
       inkscape:persp3d-origin="0.5 : 0.33333333 : 1"
       inkscape:vp_z="1 : 0.5 : 1"
       inkscape:vp_y="0 : 1000 : 0"
       inkscape:vp_x="0 : 0.5 : 1"
       sodipodi:type="inkscape:persp3d" />
  </defs>
  <sodipodi:namedview
     id="base"
     pagecolor="#ffffff"
     bordercolor="#666666"
     borderopacity="1.0"
     inkscape:pageopacity="0.0"
     inkscape:pageshadow="2"
     inkscape:zoom="0.35"
     inkscape:cx="375"
     inkscape:cy="520"
     inkscape:document-units="px"
     inkscape:current-layer="layer1"
     showgrid="false"
     inkscape:window-width="613"
     inkscape:window-height="504"
     inkscape:window-x="665"
     inkscape:window-y="464"
     inkscape:window-maximized="0" />
  <metadata
     id="metadata3134">
    <rdf:RDF>
      <cc:Work
         rdf:about="">
        <dc:format>image/svg+xml</dc:format>
        <dc:type
           rdf:resource="http://purl.org/dc/dcmitype/StillImage" />
        <dc:title></dc:title>
      </cc:Work>
    </rdf:RDF>
  </metadata>
  <g
     inkscape:label="Layer 1"
     inkscape:groupmode="layer"
     id="layer1">
    <path
       style="fill:#333333;fill-opacity:1;fill-rule:nonzero;stroke:none"
       id="path188"
       inkscape:connector-curvature="0"
       d="m 277.37501,561.81547 c 25.54351,-5.59743 53.03428,-9.26668 82.2814,-10.07231 L 340.1456,436.06811 c -3.39816,-20.02627 -20.50353,-34.56583 -40.73979,-34.56583 -2.32908,0 -4.61998,0.20236 -6.94906,0.57654 -22.52715,3.79908 -37.76162,25.22279 -33.98164,47.76904 l 18.8999,111.96761 z m 23.17625,104.96892 c 3.13089,2.15727 6.45269,4.04726 10.04177,5.39507 5.34542,2.04653 11.07267,3.18053 17.029,3.18053 2.67271,0 5.34543,-0.22909 8.05632,-0.69491 7.25451,-1.22181 13.78357,-4.09689 19.43445,-8.03341 9.46904,-6.59397 16.37992,-16.37992 19.28172,-27.57859 1.64181,-6.36488 2.06181,-13.14975 0.91636,-20.03772 -1.14545,-6.84596 -3.81816,-13.01229 -7.40723,-18.44936 -2.78726,-4.17325 -6.07088,-7.91887 -9.92723,-11.01922 -8.36177,-6.78487 -18.93808,-10.78249 -30.23984,-10.78249 -2.67272,0 -5.34543,0.22909 -8.09451,0.66818 -12.56175,2.13054 -23.09988,9.00323 -30.23985,18.39973 -1.67999,2.19162 -3.13089,4.55125 -4.39088,6.99869 -0.11455,0.20236 -0.22909,0.35127 -0.30546,0.54218 -4.50543,8.87723 -6.45269,19.12899 -4.61997,29.69767 1.75635,10.5534 6.94905,19.60626 14.08902,26.53241 1.98544,1.90144 4.08543,3.62725 6.37633,5.18124 z m 82.47231,-77.43997 c 0.80181,1.18745 1.64181,2.31763 2.40544,3.56998 0.68727,-1.16072 1.48908,-2.29471 2.25272,-3.4058 -1.56545,-0.0764 -3.1309,-0.14127 -4.65816,-0.16418 z m -103.73948,89.88337 c 0.91636,-0.23673 1.83272,-0.43909 2.7109,-0.67964 0.80181,-0.21381 1.60363,-0.38945 2.40544,-0.59181 -0.95454,-0.79418 -1.98544,-1.46236 -2.86362,-2.29472 -0.19091,-0.16418 -0.42,-0.27872 -0.57272,-0.45436 -0.45818,1.38981 -1.10727,2.68417 -1.68,4.02053 z m 93.54498,-489.7328 c -24.5126,4.1618 -105.83946,17.92246 -105.83946,17.92246 0,0 81.32686,13.73393 105.83946,17.8919 l 0,-35.81436 z m 9.50723,476.12868 c 1.56545,-0.0114 3.09271,-0.0496 4.61998,-0.0496 -0.76364,-1.11109 -1.56545,-2.16872 -2.25272,-3.3409 -0.72545,1.17218 -1.56545,2.25654 -2.36726,3.39053 z m 98.85223,-459.2944 c 0.11454,-13.27575 -4.35271,-25.25333 -12.2563,-33.31347 -3.89453,-3.95943 -10.38541,-8.70159 -19.24354,-8.77795 -17.6781,0 -32.03439,18.44936 -32.2253,41.13688 l -2.21453,63.5304 67.00875,0.58036 -1.06908,-63.15622 z M 449.07778,25.382733 c 0,0 -13.7072,81.338317 -17.90718,105.816557 l 35.77618,0 c -4.12361,-24.47824 -17.869,-105.816557 -17.869,-105.816557 z m 33.67619,273.735517 -68.49783,-0.59181 -4.1618,120.99375 74.72144,0.64527 -2.06181,-121.04721 z M 407.80344,140.83251 c -20.23626,-14.3372 -87.43592,-62.140592 -87.43592,-62.140592 0,0 47.76522,67.222562 62.08332,87.451192 l 25.3526,-25.3106 z m 79.53233,425.72512 -2.02363,-116.77087 -76.2487,-0.65672 -3.55089,103.74329 c 27.18531,2.06945 54.56154,6.69706 81.82322,13.6843 z m 1.10727,47.32612 c -0.99273,-3.24162 -2.40545,-6.20451 -3.97089,-9.07959 l 0,-0.41618 c -0.11455,-0.0229 -0.22909,-0.0496 -0.34364,-0.0764 -0.95454,-1.71436 -1.94726,-3.45162 -3.13089,-5.03234 -8.9345,-11.91648 -23.02352,-19.4459 -38.48708,-19.4459 -2.67271,0 -5.38361,0.22909 -8.0945,0.68345 -8.7436,1.46236 -16.37992,5.34543 -22.71807,10.65649 -1.14545,0.94309 -2.32908,1.87854 -3.39817,2.95144 -3.77998,3.80671 -6.91087,8.20905 -9.23995,13.06194 -0.0764,0.14127 -0.19091,0.27872 -0.26727,0.41618 -2.63453,5.58979 -4.19998,11.71412 -4.50543,18.09809 -0.19091,3.42871 -0.0382,6.92232 0.53454,10.46558 1.75636,10.2174 6.68179,19.01445 13.47811,25.84896 1.60363,1.62654 3.32181,3.1538 5.15452,4.53979 8.17087,6.18161 18.21264,9.87759 28.94168,9.87759 2.67271,0 5.34542,-0.22909 8.0945,-0.68345 3.62725,-0.63 7.0636,-1.71436 10.3854,-3.06217 10.23268,-4.2267 18.36536,-11.79048 23.59625,-21.1488 3.16907,-5.7387 5.23088,-12.11885 5.87997,-18.85027 0.38181,-4.12361 0.45818,-8.32741 -0.26727,-12.58848 -0.38182,-2.15344 -1.03091,-4.18471 -1.64181,-6.21597 z m 33.48528,134.85368 0,279.17637 c 49.2543,-66.63071 90.33773,-202.22894 107.09946,-263.02172 l -0.61091,-0.0878 -106.48855,-16.06683 z m -31.65257,-607.90492 25.31442,25.3106 c 14.35629,-20.22863 62.15969,-87.451192 62.15969,-87.451192 0,0 -67.23785,47.803392 -87.47411,62.140592 z m 35.01255,84.47684 c 24.47443,-4.15797 105.7631,-17.8919 105.7631,-17.8919 0,0 -81.28867,-13.76066 -105.7631,-17.92246 l 0,35.81436 z M 264.9278,603.79617 c -0.83999,0.22527 -1.64181,0.43909 -2.4818,0.66818 0.53454,0.47727 1.14545,0.83235 1.60363,1.31344 0.26727,-0.6949 0.6109,-1.3249 0.87817,-1.98162 z m 295.22033,-11.84012 -1.48909,-0.51927 -31.5762,96.63387 -5.15452,15.70028 0,9.79741 111.64307,16.83428 3.47453,-13.71866 4.31452,-17.02519 18.32718,-72.5489 -3.43634,-1.20654 -96.10315,-33.94728 z M 714.82189,436.15592 c -5.03997,-2.66125 -10.27086,-3.88689 -15.73083,-3.88689 -39.74707,0.0153 -88.00865,65.30967 -112.13943,102.21985 -3.77998,5.79979 -6.94906,10.85886 -9.39268,14.89465 -3.70362,6.06325 -5.84179,9.77068 -5.84179,9.77068 l 96.10315,33.94728 c 0,0 0.72545,-1.71435 1.8709,-4.52452 1.48908,-3.58144 3.7418,-9.1445 6.60542,-16.07828 10.19449,-24.75315 27.45259,-66.47039 39.70889,-94.81643 7.94178,-18.39973 11.8363,-34.66892 -1.18363,-41.52634 z M 168.17556,601.24945 C 190.97,589.56969 216.89532,578.66502 245.72245,570.03597 L 218.95713,463.29161 c -4.61998,-18.48755 -21.11444,-31.40057 -40.12889,-31.40057 -3.35998,0 -6.75815,0.4429 -10.07995,1.26381 -22.14534,5.53633 -35.62346,28.08258 -30.08712,50.25084 l 29.51439,117.84376 z m 291.40217,109.46672 c -5.76543,-1.13399 -11.45449,-2.14199 -17.10537,-2.9858 -6.07088,-0.92018 -12.06539,-1.7029 -17.98355,-2.32144 -3.01634,-0.30546 -6.03269,-0.58036 -9.01086,-0.80564 -5.07816,-0.39327 -10.15631,-0.67199 -15.15811,-0.87054 -5.07815,-0.19091 -10.11813,-0.31691 -15.08174,-0.30545 -25.9635,0.0764 -50.55247,2.84071 -73.65235,7.54469 -2.93999,0.59181 -5.87997,1.18363 -8.78178,1.85181 -1.90908,0.41618 -3.81816,0.85908 -5.68906,1.3249 -2.93998,0.69109 -5.84179,1.46236 -8.70541,2.24508 -1.8709,0.49254 -3.77998,0.95836 -5.6127,1.45854 -2.97816,0.84763 -5.84179,1.76781 -8.74359,2.66507 -21.15262,6.4947 -40.62525,14.36011 -58.3797,22.88607 -3.62726,1.72963 -7.13997,3.46689 -10.57631,5.24616 -0.95454,0.46963 -1.8709,0.96981 -2.78726,1.42799 -3.66544,1.9129 -7.21633,3.84489 -10.69086,5.77306 -0.83999,0.45436 -1.67999,0.92018 -2.51998,1.40127 -3.70362,2.09235 -7.33088,4.1847 -10.8054,6.30378 -21.83989,13.1383 -39.51799,26.24223 -52.5761,36.872 -2.2909,1.87853 -4.46725,3.67307 -6.45269,5.38361 l 85.98501,218.13547 5.65088,14.2722 0.45818,1.1226 273.11317,0 0,-322.89818 c -1.03091,-0.26728 -2.02363,-0.504 -3.01635,-0.756 -7.36906,-1.88999 -14.66175,-3.55853 -21.87807,-4.97125 z M 217.42986,605.6747 c -2.63453,0 -5.34543,0.21382 -8.05632,0.66818 -14.58538,2.4589 -26.34532,11.33613 -33.33256,23.1037 -0.19091,0.33982 -0.38182,0.65291 -0.53454,0.95836 -2.21454,3.90598 -4.04726,8.01814 -5.11634,12.40903 -0.95454,3.9938 -1.18363,8.19378 -1.06909,12.43194 0.0764,2.23362 0.0764,4.47488 0.45818,6.73524 1.33636,7.93032 4.65816,14.97865 9.16359,20.98462 3.51271,4.61616 7.78905,8.57177 12.59994,11.66066 2.78726,1.72963 5.65088,3.27981 8.70541,4.45198 4.39089,1.67618 9.08723,2.5849 13.93629,2.91326 1.06909,0.0764 2.09999,0.27873 3.16908,0.27873 2.63453,0 5.34543,-0.21382 8.05632,-0.68345 10.61449,-1.7869 19.70172,-7.01015 26.65078,-14.21121 6.18542,-6.44505 10.57631,-14.4861 12.48539,-23.35188 1.14545,-5.3607 1.33635,-10.95812 0.57272,-16.65864 -0.0764,-0.48109 0,-0.95836 -0.11454,-1.43945 -0.53455,-3.21489 -1.45091,-6.27706 -2.55817,-9.21704 -1.06909,-2.73762 -2.32908,-5.32252 -3.81817,-7.76996 -4.50543,-7.43778 -10.95812,-13.40557 -18.51808,-17.46428 -6.83451,-3.6578 -14.58538,-5.79979 -22.67989,-5.79979 z M 107.19951,521.65222 c -5.76542,-16.6701 -21.496251,-27.86877 -39.136162,-27.86877 -4.581795,0 -9.16359,0.78272 -13.554477,2.30617 -21.572618,7.51796 -33.027105,31.16003 -25.505325,52.74028 L 70.392427,668.03293 C 84.901445,654.95573 108.49769,635.80001 140.2648,616.7321 l -33.06529,-95.07988 z m 22.10716,240.94514 c 20.08354,-3.39434 35.08891,-18.75099 39.09798,-37.52872 0.0382,-0.1909 0.0382,-0.40472 0.0764,-0.59181 1.14545,-5.65088 1.41272,-11.55376 0.42,-17.54064 -1.48909,-8.73977 -5.23089,-16.48301 -10.53813,-22.82497 -6.94906,-8.36178 -16.60901,-14.15011 -27.37623,-16.36847 -3.16907,-0.64527 -6.37632,-1.08436 -9.65994,-1.08436 -2.67272,0 -5.34543,0.22528 -8.09451,0.69491 -15.349013,2.59635 -27.605314,12.23339 -34.401644,24.96696 -4.772703,8.92687 -6.872692,19.31991 -5.230882,30.06422 0.03818,0.20236 0,0.4009 0.03818,0.60327 0.954541,5.75015 2.939986,11.08794 5.689063,15.87592 4.925429,8.65195 12.447209,15.33374 21.228983,19.53371 0.49636,0.252 0.99272,0.48109 1.48908,0.70636 3.39817,1.47382 6.91088,2.72235 10.6145,3.40581 2.78725,0.49254 5.65088,0.76745 8.55268,0.76745 2.67271,0 5.34543,-0.22528 8.0945,-0.67964" />
  </g>
</svg>
