<?xml version="1.0" encoding="UTF-8" standalone="no"?>
<!-- Created with Inkscape (http://www.inkscape.org/) -->

<svg
   xmlns:dc="http://purl.org/dc/elements/1.1/"
   xmlns:cc="http://creativecommons.org/ns#"
   xmlns:rdf="http://www.w3.org/1999/02/22-rdf-syntax-ns#"
   xmlns:svg="http://www.w3.org/2000/svg"
   xmlns="http://www.w3.org/2000/svg"
   xmlns:sodipodi="http://sodipodi.sourceforge.net/DTD/sodipodi-0.dtd"
   xmlns:inkscape="http://www.inkscape.org/namespaces/inkscape"
   width="111.25293"
   height="130.6873"
   id="svg3319"
   version="1.1"
   inkscape:version="0.47 r22583"
   sodipodi:docname="New document 7">
  <defs
     id="defs3321">
    <inkscape:perspective
       sodipodi:type="inkscape:persp3d"
       inkscape:vp_x="0 : 526.18109 : 1"
       inkscape:vp_y="0 : 1000 : 0"
       inkscape:vp_z="744.09448 : 526.18109 : 1"
       inkscape:persp3d-origin="372.04724 : 350.78739 : 1"
       id="perspective3327" />
    <inkscape:perspective
       id="perspective3299"
       inkscape:persp3d-origin="0.5 : 0.33333333 : 1"
       inkscape:vp_z="1 : 0.5 : 1"
       inkscape:vp_y="0 : 1000 : 0"
       inkscape:vp_x="0 : 0.5 : 1"
       sodipodi:type="inkscape:persp3d" />
  </defs>
  <sodipodi:namedview
     id="base"
     pagecolor="#ffffff"
     bordercolor="#666666"
     borderopacity="1.0"
     inkscape:pageopacity="0.0"
     inkscape:pageshadow="2"
     inkscape:zoom="0.35"
     inkscape:cx="59.197895"
     inkscape:cy="48.200787"
     inkscape:document-units="px"
     inkscape:current-layer="layer1"
     showgrid="false"
     inkscape:window-width="613"
     inkscape:window-height="504"
     inkscape:window-x="327"
     inkscape:window-y="92"
     inkscape:window-maximized="0" />
  <metadata
     id="metadata3324">
    <rdf:RDF>
      <cc:Work
         rdf:about="">
        <dc:format>image/svg+xml</dc:format>
        <dc:type
           rdf:resource="http://purl.org/dc/dcmitype/StillImage" />
        <dc:title></dc:title>
      </cc:Work>
    </rdf:RDF>
  </metadata>
  <g
     inkscape:label="Layer 1"
     inkscape:groupmode="layer"
     id="layer1"
     transform="translate(-315.80211,-449.87567)">
    <g
       transform="matrix(1.25,0,0,1.25,315.75252,447.90797)"
       style="fill:#000000;fill-rule:nonzero;stroke:none"
       id="g12">
      <path
         d="M 0.144,20.115 C 0.083,20.039 0.047,19.996 0.047,19.996 c 0,0 -0.047,0.019 0.097,0.119 z m 45.924,-7.257 c 1.111,1.366 3.682,4.654 2.951,6.583 C 44.893,18.458 42.818,14.793 41.294,11.219 39.804,7.726 37.822,5.421 34.075,4.316 32.964,3.989 30.748,4.16 29.812,3.592 32.04,4.947 36.313,9.5 35.184,11.391 34.055,13.285 27.042,0 17.871,1.73 c 2.224,2.035 5.9,5.258 6.001,8.566 -1.666,0.061 -3.34,-0.409 -5.138,-0.168 -3.057,0.411 -5.476,0.408 -8.388,-0.691 C 7.287,8.283 4.411,6.326 2.395,3.732 c -0.76,2.958 0.317,6.293 2.012,8.709 2.117,3.016 5.193,3.813 8.12,5.717 1.272,0.828 5.606,3.77 3.586,5.26 -2.702,1.994 -7.658,-0.26 -10.359,-1.174 -1.774,-0.6 -4.025,-1.063 -5.61,-2.129 1.606,1.08 2.914,3.171 4.402,4.464 2.331,2.022 4.921,3.871 7.837,4.94 0.814,0.297 8.578,3.246 4.769,4.082 -1.723,0.378 -3.552,-0.259 -5.156,-0.83 -0.945,-0.336 -4.425,-1.14 -4.793,-2.027 1.408,3.385 4.658,5.555 7.932,6.904 0.76,0.314 7.062,1.688 5.495,3.298 -0.766,0.784 -3.292,-0.61 -4.229,-0.813 -0.888,-0.192 -1.791,-0.317 -2.697,-0.34 -0.834,-0.022 -2.272,0.499 -3.004,0.325 3.627,0.86 7.607,6.337 8.33,8.098 1.699,4.151 11.001,12.157 19.855,7.856 1.542,-0.751 3.141,-1.727 4.728,-2.873 -0.52,-0.143 -0.637,-0.469 -1.052,-0.791 -2.688,0.697 -10.094,2.275 -12.733,-0.475 4.965,2.02 9.715,-0.005 11.266,-0.799 -0.213,-0.447 -0.354,-0.937 -0.418,-1.462 -3.298,0.568 -7.577,0.558 -11.953,-1.52 3.162,-0.467 5.641,-1.631 5.087,-2.992 -2.461,-0.678 -7.869,-2.891 -9.868,-5.975 4.602,1.717 7.797,3.25 10.012,1.458 -2.527,-0.718 -5.023,-3.055 -7.193,-6.495 5.528,1.268 8.125,1.567 9.079,0.018 0.951,-1.547 -1.827,-10.303 -5.218,-12.481 5.253,1.561 9.39,6.145 10.276,8.172 0.887,2.03 3.153,-4.485 2.643,-7.464 -0.043,-0.246 6.766,6.943 6.965,12.352 1.702,-3.22 1.625,-3.546 1.168,-5.217 2.311,1.976 1.674,6.779 1.674,6.779 0,0 -0.095,1.004 -0.422,2.419 0.031,0.013 0.059,0.029 0.089,0.043 0.541,-1.283 3.209,-7.942 1.6,-11.156 2.988,2.698 0.389,10.363 -0.361,11.987 0.331,0.333 0.588,0.72 0.78,1.148 1.798,-3.14 3.154,-6.715 2.989,-10.385 -0.392,-8.68 -4.211,-14.16 -11.955,-17.505 z"
         id="path14" />
    </g>
    <g
       transform="matrix(1.25,0,0,1.25,367.24877,489.59297)"
       style="fill:#000000;fill-rule:nonzero;stroke:none"
       id="g16">
      <path
         d="m 21.185,0 c 0,0 -1.681,5.397 -9.549,5.88 C 3.77,6.365 0,2.57 0,2.57 c 0,0 1.654,-0.968 1.654,-0.968 0,0 10.008,0.204 10.084,0.179 0.076,-0.026 2.24,-0.229 2.342,-0.203 0.102,0.024 3.284,-0.102 3.284,-0.102 0,0 3.821,-1.476 3.821,-1.476 z"
         id="path18" />
    </g>
    <g
       transform="matrix(1.25,0,0,1.25,336.40627,487.80172)"
       style="fill:#ffffff;fill-rule:nonzero;stroke:none"
       id="g20">
      <path
         d="M 67.179,17.489 C 64.245,16.83 58.033,12.903 56.418,11.759 57.697,8.892 58.678,6.907 58.687,6.886 58.736,6.788 58.762,6.683 58.763,6.573 58.792,4.405 55.07,3.013 55.033,3.001 50.937,1.616 43.576,0 36.321,0 29.391,0 23.897,1.409 19.992,4.188 c -0.055,0.041 -0.106,0.089 -0.148,0.144 0,0 -7.94,10.14 -7.94,10.14 -1.449,1.847 -1.047,4.59 0.893,6.111 0,0 0.492,0.385 0.492,0.385 0.813,0.638 1.82,0.989 2.834,0.989 1.321,0 2.529,-0.577 3.315,-1.584 0.439,-0.562 0.858,-1.146 1.263,-1.712 0.798,-1.113 1.551,-2.165 2.468,-3.084 2.45,-2.457 3.976,-2.974 4.823,-2.974 1.606,0 2.009,1.915 2.056,2.185 -0.24,0.85 -2.402,4.565 -3.457,6.374 -0.375,0.646 -0.702,1.204 -0.921,1.594 -1.59,2.815 -3.392,6.008 -3.909,9.742 -0.448,3.234 -10e-4,6.468 0.494,9.503 0.061,0.368 0.138,0.746 0.22,1.146 0.347,1.693 0.741,3.612 -0.318,4.758 -1.208,1.307 -3.604,1.997 -6.934,1.997 -3.347,0 -6.745,-0.692 -8.051,-0.991 -0.477,-0.109 -0.947,-0.164 -1.394,-0.164 -2.779,0 -4.801,2.121 -5.277,5.535 -0.501,3.606 1.627,6.297 5.995,7.582 3.415,1.006 7.06,1.514 10.831,1.514 2.581,0 5.247,-0.238 7.922,-0.712 0,0 0.397,-0.069 0.397,-0.069 3.053,-0.536 6.514,-1.141 8.549,-4.003 2.136,-3.006 1.829,-6.828 1.556,-10.199 -0.019,-0.242 -0.038,-0.482 -0.056,-0.717 -0.006,-0.087 -0.015,-0.191 -0.025,-0.308 -0.063,-0.741 -0.18,-2.121 -0.088,-3.393 0.133,-1.806 0.601,-2.355 0.869,-2.522 0.286,-0.179 0.636,-0.27 1.041,-0.27 2.09,0 6.055,2.527 10.203,8.169 4.398,5.985 7.659,13.571 9.18,21.361 0.351,1.788 2.387,3.3 4.449,3.3 1.262,0 2.399,-0.545 3.286,-1.575 2.138,-2.479 2.693,-7.669 1.603,-15.006 C 64.558,46.293 55.738,38.164 51.971,34.692 51.315,34.088 50.637,33.463 50.522,33.28 50.071,32.448 49.676,30.009 51.96,23.05 c 4.34,1.53 9.824,2.626 12.457,2.713 0.065,0.002 0.129,0.003 0.195,0.003 2.988,0 4.8,-2.244 5.045,-4.46 0.211,-1.905 -0.785,-3.438 -2.478,-3.817 z"
         id="path22" />
    </g>
    <g
       transform="matrix(1.25,0,0,1.25,376.54627,457.43172)"
       style="fill:#ffffff;fill-rule:nonzero;stroke:none"
       id="g24">
      <path
         d="m 12.427,25.201 c 1.492,0.054 2.932,-0.16 4.28,-0.585 2.044,-0.639 3.869,-1.77 5.32,-3.272 2.061,-2.137 3.374,-4.996 3.489,-8.182 C 25.579,11.48 25.299,9.864 24.737,8.379 24.421,7.525 24.014,6.717 23.524,5.961 23.531,5.95 23.542,5.939 23.552,5.928 22.766,4.712 21.773,3.641 20.621,2.759 18.603,1.219 16.103,0.259 13.365,0.158 9.008,0 5.093,2.047 2.703,5.285 2.651,5.357 2.598,5.434 2.546,5.508 2.382,5.74 2.222,5.976 2.074,6.22 1.973,6.387 1.879,6.559 1.787,6.73 1.698,6.889 1.609,7.044 1.53,7.207 1.406,7.465 1.291,7.728 1.18,7.995 1.147,8.08 1.11,8.163 1.078,8.248 0.945,8.59 0.831,8.938 0.73,9.297 0.728,9.31 0.722,9.322 0.718,9.334 0.459,10.264 0.288,11.232 0.251,12.239 0,19.144 5.453,24.945 12.427,25.201 z"
         id="path26" />
    </g>
    <g
       transform="matrix(1.25,0,0,1.25,380.69377,531.52797)"
       style="fill:#000000;fill-rule:nonzero;stroke:none"
       id="g28">
      <path
         d="M 1.775,20.815 C 1.775,20.815 2.259,8.391 0,3.067 1.13,0 4.033,16.297 1.775,20.815 z"
         id="path30" />
    </g>
    <g
       transform="matrix(1.25,0,0,1.25,339.94627,488.04422)"
       style="fill:#000000;fill-rule:nonzero;stroke:none"
       id="g32">
      <path
         d="M 67.181,17.488 C 64.246,16.83 58.035,12.903 56.419,11.758 57.697,8.892 58.678,6.906 58.689,6.885 58.738,6.788 58.762,6.682 58.765,6.572 58.792,4.405 55.072,3.012 55.033,3 50.936,1.616 43.577,0 36.323,0 29.392,0 23.899,1.409 19.994,4.188 c -0.056,0.041 -0.107,0.09 -0.151,0.144 0,0 -7.938,10.138 -7.938,10.138 -1.448,1.849 -1.047,4.591 0.893,6.113 0,0 0.492,0.385 0.492,0.385 0.813,0.638 1.821,0.989 2.835,0.989 1.321,0 2.529,-0.578 3.315,-1.584 0.438,-0.561 0.858,-1.146 1.263,-1.713 0.797,-1.113 1.55,-2.166 2.466,-3.084 2.451,-2.458 3.977,-2.974 4.825,-2.974 1.606,0 2.008,1.916 2.053,2.184 -0.238,0.852 -2.401,4.566 -3.454,6.374 -0.378,0.647 -0.702,1.205 -0.921,1.596 -1.59,2.815 -3.392,6.007 -3.909,9.74 -0.448,3.235 -0.003,6.469 0.494,9.504 0.061,0.369 0.138,0.746 0.22,1.147 0.346,1.692 0.741,3.611 -0.318,4.758 -1.208,1.306 -3.606,1.997 -6.934,1.997 -3.347,0 -6.746,-0.693 -8.051,-0.991 C 6.696,48.802 6.227,48.747 5.779,48.747 3.001,48.746 0.979,50.867 0.503,54.281 0,57.887 2.13,60.58 6.497,61.865 c 3.415,1.004 7.059,1.514 10.83,1.514 2.583,0 5.248,-0.24 7.922,-0.713 0,0 0.397,-0.07 0.397,-0.07 3.055,-0.535 6.516,-1.141 8.55,-4.003 2.137,-3.005 1.83,-6.827 1.556,-10.198 -0.018,-0.242 -0.038,-0.481 -0.056,-0.719 -0.006,-0.087 -0.016,-0.189 -0.026,-0.306 -0.061,-0.742 -0.18,-2.122 -0.086,-3.393 0.133,-1.805 0.6,-2.356 0.867,-2.523 0.287,-0.178 0.636,-0.268 1.042,-0.268 2.09,0 6.055,2.525 10.203,8.168 4.399,5.984 7.66,13.57 9.18,21.361 0.351,1.789 2.387,3.3 4.449,3.3 1.261,0 2.398,-0.546 3.286,-1.575 2.139,-2.479 2.694,-7.668 1.603,-15.006 C 64.559,46.291 55.738,38.163 51.972,34.692 51.317,34.088 50.637,33.463 50.521,33.28 c -0.449,-0.832 -0.845,-3.272 1.441,-10.231 4.338,1.531 9.824,2.627 12.455,2.713 0.066,0.002 0.131,0.003 0.196,0.003 2.988,0 4.8,-2.243 5.046,-4.46 0.211,-1.904 -0.785,-3.439 -2.478,-3.817 z"
         id="path34" />
    </g>
    <g
       transform="matrix(1.25,0,0,1.25,380.10502,457.68547)"
       style="fill:#000000;fill-rule:nonzero;stroke:none"
       id="g36">
      <path
         d="m 11.662,23.647 c 1.4,0.05 2.75,-0.151 4.017,-0.547 1.917,-0.602 3.63,-1.663 4.991,-3.073 1.936,-2.003 3.168,-4.687 3.275,-7.677 C 24.003,10.773 23.739,9.256 23.212,7.861 22.916,7.063 22.535,6.303 22.074,5.594 22.082,5.584 22.093,5.572 22.101,5.563 21.364,4.421 20.432,3.416 19.35,2.588 17.457,1.143 15.112,0.242 12.542,0.149 8.453,0 4.779,1.92 2.537,4.959 2.488,5.027 2.44,5.098 2.392,5.169 2.237,5.387 2.087,5.608 1.948,5.836 1.853,5.992 1.765,6.154 1.676,6.315 1.594,6.464 1.51,6.609 1.438,6.764 1.32,7.004 1.212,7.252 1.109,7.502 1.078,7.582 1.042,7.66 1.013,7.739 0.888,8.059 0.782,8.387 0.687,8.724 0.684,8.735 0.68,8.747 0.675,8.759 0.432,9.631 0.272,10.541 0.236,11.485 0,17.963 5.117,23.407 11.662,23.647 z"
         id="path38" />
    </g>
    <g
       transform="matrix(1.25,0,0,1.25,406.84377,533.24047)"
       style="fill:#000000;fill-rule:nonzero;stroke:none"
       id="g40">
      <path
         d="M 10.934,17.723 C 10.934,17.723 5.16,6.711 0.548,3.221 0,0 10.638,12.68 10.934,17.723 z"
         id="path42" />
    </g>
    <g
       id="g3368"
       style="fill:#000000;fill-rule:nonzero;stroke:none"
       transform="matrix(1.25,0,0,1.25,315.75252,447.90797)">
      <path
         id="path3370"
         d="M 0.144,20.115 C 0.083,20.039 0.047,19.996 0.047,19.996 c 0,0 -0.047,0.019 0.097,0.119 z m 45.924,-7.257 c 1.111,1.366 3.682,4.654 2.951,6.583 C 44.893,18.458 42.818,14.793 41.294,11.219 39.804,7.726 37.822,5.421 34.075,4.316 32.964,3.989 30.748,4.16 29.812,3.592 32.04,4.947 36.313,9.5 35.184,11.391 34.055,13.285 27.042,0 17.871,1.73 c 2.224,2.035 5.9,5.258 6.001,8.566 -1.666,0.061 -3.34,-0.409 -5.138,-0.168 -3.057,0.411 -5.476,0.408 -8.388,-0.691 C 7.287,8.283 4.411,6.326 2.395,3.732 c -0.76,2.958 0.317,6.293 2.012,8.709 2.117,3.016 5.193,3.813 8.12,5.717 1.272,0.828 5.606,3.77 3.586,5.26 -2.702,1.994 -7.658,-0.26 -10.359,-1.174 -1.774,-0.6 -4.025,-1.063 -5.61,-2.129 1.606,1.08 2.914,3.171 4.402,4.464 2.331,2.022 4.921,3.871 7.837,4.94 0.814,0.297 8.578,3.246 4.769,4.082 -1.723,0.378 -3.552,-0.259 -5.156,-0.83 -0.945,-0.336 -4.425,-1.14 -4.793,-2.027 1.408,3.385 4.658,5.555 7.932,6.904 0.76,0.314 7.062,1.688 5.495,3.298 -0.766,0.784 -3.292,-0.61 -4.229,-0.813 -0.888,-0.192 -1.791,-0.317 -2.697,-0.34 -0.834,-0.022 -2.272,0.499 -3.004,0.325 3.627,0.86 7.607,6.337 8.33,8.098 1.699,4.151 11.001,12.157 19.855,7.856 1.542,-0.751 3.141,-1.727 4.728,-2.873 -0.52,-0.143 -0.637,-0.469 -1.052,-0.791 -2.688,0.697 -10.094,2.275 -12.733,-0.475 4.965,2.02 9.715,-0.005 11.266,-0.799 -0.213,-0.447 -0.354,-0.937 -0.418,-1.462 -3.298,0.568 -7.577,0.558 -11.953,-1.52 3.162,-0.467 5.641,-1.631 5.087,-2.992 -2.461,-0.678 -7.869,-2.891 -9.868,-5.975 4.602,1.717 7.797,3.25 10.012,1.458 -2.527,-0.718 -5.023,-3.055 -7.193,-6.495 5.528,1.268 8.125,1.567 9.079,0.018 0.951,-1.547 -1.827,-10.303 -5.218,-12.481 5.253,1.561 9.39,6.145 10.276,8.172 0.887,2.03 3.153,-4.485 2.643,-7.464 -0.043,-0.246 6.766,6.943 6.965,12.352 1.702,-3.22 1.625,-3.546 1.168,-5.217 2.311,1.976 1.674,6.779 1.674,6.779 0,0 -0.095,1.004 -0.422,2.419 0.031,0.013 0.059,0.029 0.089,0.043 0.541,-1.283 3.209,-7.942 1.6,-11.156 2.988,2.698 0.389,10.363 -0.361,11.987 0.331,0.333 0.588,0.72 0.78,1.148 1.798,-3.14 3.154,-6.715 2.989,-10.385 -0.392,-8.68 -4.211,-14.16 -11.955,-17.505 z" />
    </g>
    <g
       id="g3372"
       style="fill:#000000;fill-rule:nonzero;stroke:none"
       transform="matrix(1.25,0,0,1.25,367.24877,489.59297)">
      <path
         id="path3374"
         d="m 21.185,0 c 0,0 -1.681,5.397 -9.549,5.88 C 3.77,6.365 0,2.57 0,2.57 c 0,0 1.654,-0.968 1.654,-0.968 0,0 10.008,0.204 10.084,0.179 0.076,-0.026 2.24,-0.229 2.342,-0.203 0.102,0.024 3.284,-0.102 3.284,-0.102 0,0 3.821,-1.476 3.821,-1.476 z" />
    </g>
    <g
       id="g3376"
       style="fill:#ffffff;fill-rule:nonzero;stroke:none"
       transform="matrix(1.25,0,0,1.25,336.40627,487.80172)">
      <path
         id="path3378"
         d="M 67.179,17.489 C 64.245,16.83 58.033,12.903 56.418,11.759 57.697,8.892 58.678,6.907 58.687,6.886 58.736,6.788 58.762,6.683 58.763,6.573 58.792,4.405 55.07,3.013 55.033,3.001 50.937,1.616 43.576,0 36.321,0 29.391,0 23.897,1.409 19.992,4.188 c -0.055,0.041 -0.106,0.089 -0.148,0.144 0,0 -7.94,10.14 -7.94,10.14 -1.449,1.847 -1.047,4.59 0.893,6.111 0,0 0.492,0.385 0.492,0.385 0.813,0.638 1.82,0.989 2.834,0.989 1.321,0 2.529,-0.577 3.315,-1.584 0.439,-0.562 0.858,-1.146 1.263,-1.712 0.798,-1.113 1.551,-2.165 2.468,-3.084 2.45,-2.457 3.976,-2.974 4.823,-2.974 1.606,0 2.009,1.915 2.056,2.185 -0.24,0.85 -2.402,4.565 -3.457,6.374 -0.375,0.646 -0.702,1.204 -0.921,1.594 -1.59,2.815 -3.392,6.008 -3.909,9.742 -0.448,3.234 -10e-4,6.468 0.494,9.503 0.061,0.368 0.138,0.746 0.22,1.146 0.347,1.693 0.741,3.612 -0.318,4.758 -1.208,1.307 -3.604,1.997 -6.934,1.997 -3.347,0 -6.745,-0.692 -8.051,-0.991 -0.477,-0.109 -0.947,-0.164 -1.394,-0.164 -2.779,0 -4.801,2.121 -5.277,5.535 -0.501,3.606 1.627,6.297 5.995,7.582 3.415,1.006 7.06,1.514 10.831,1.514 2.581,0 5.247,-0.238 7.922,-0.712 0,0 0.397,-0.069 0.397,-0.069 3.053,-0.536 6.514,-1.141 8.549,-4.003 2.136,-3.006 1.829,-6.828 1.556,-10.199 -0.019,-0.242 -0.038,-0.482 -0.056,-0.717 -0.006,-0.087 -0.015,-0.191 -0.025,-0.308 -0.063,-0.741 -0.18,-2.121 -0.088,-3.393 0.133,-1.806 0.601,-2.355 0.869,-2.522 0.286,-0.179 0.636,-0.27 1.041,-0.27 2.09,0 6.055,2.527 10.203,8.169 4.398,5.985 7.659,13.571 9.18,21.361 0.351,1.788 2.387,3.3 4.449,3.3 1.262,0 2.399,-0.545 3.286,-1.575 2.138,-2.479 2.693,-7.669 1.603,-15.006 C 64.558,46.293 55.738,38.164 51.971,34.692 51.315,34.088 50.637,33.463 50.522,33.28 50.071,32.448 49.676,30.009 51.96,23.05 c 4.34,1.53 9.824,2.626 12.457,2.713 0.065,0.002 0.129,0.003 0.195,0.003 2.988,0 4.8,-2.244 5.045,-4.46 0.211,-1.905 -0.785,-3.438 -2.478,-3.817 z" />
    </g>
    <g
       id="g3380"
       style="fill:#ffffff;fill-rule:nonzero;stroke:none"
       transform="matrix(1.25,0,0,1.25,376.54627,457.43172)">
      <path
         id="path3382"
         d="m 12.427,25.201 c 1.492,0.054 2.932,-0.16 4.28,-0.585 2.044,-0.639 3.869,-1.77 5.32,-3.272 2.061,-2.137 3.374,-4.996 3.489,-8.182 C 25.579,11.48 25.299,9.864 24.737,8.379 24.421,7.525 24.014,6.717 23.524,5.961 23.531,5.95 23.542,5.939 23.552,5.928 22.766,4.712 21.773,3.641 20.621,2.759 18.603,1.219 16.103,0.259 13.365,0.158 9.008,0 5.093,2.047 2.703,5.285 2.651,5.357 2.598,5.434 2.546,5.508 2.382,5.74 2.222,5.976 2.074,6.22 1.973,6.387 1.879,6.559 1.787,6.73 1.698,6.889 1.609,7.044 1.53,7.207 1.406,7.465 1.291,7.728 1.18,7.995 1.147,8.08 1.11,8.163 1.078,8.248 0.945,8.59 0.831,8.938 0.73,9.297 0.728,9.31 0.722,9.322 0.718,9.334 0.459,10.264 0.288,11.232 0.251,12.239 0,19.144 5.453,24.945 12.427,25.201 z" />
    </g>
    <g
       id="g3384"
       style="fill:#000000;fill-rule:nonzero;stroke:none"
       transform="matrix(1.25,0,0,1.25,380.69377,531.52797)">
      <path
         id="path3386"
         d="M 1.775,20.815 C 1.775,20.815 2.259,8.391 0,3.067 1.13,0 4.033,16.297 1.775,20.815 z" />
    </g>
    <g
       id="g3388"
       style="fill:#000000;fill-rule:nonzero;stroke:none"
       transform="matrix(1.25,0,0,1.25,339.94627,488.04422)">
      <path
         id="path3390"
         d="M 67.181,17.488 C 64.246,16.83 58.035,12.903 56.419,11.758 57.697,8.892 58.678,6.906 58.689,6.885 58.738,6.788 58.762,6.682 58.765,6.572 58.792,4.405 55.072,3.012 55.033,3 50.936,1.616 43.577,0 36.323,0 29.392,0 23.899,1.409 19.994,4.188 c -0.056,0.041 -0.107,0.09 -0.151,0.144 0,0 -7.938,10.138 -7.938,10.138 -1.448,1.849 -1.047,4.591 0.893,6.113 0,0 0.492,0.385 0.492,0.385 0.813,0.638 1.821,0.989 2.835,0.989 1.321,0 2.529,-0.578 3.315,-1.584 0.438,-0.561 0.858,-1.146 1.263,-1.713 0.797,-1.113 1.55,-2.166 2.466,-3.084 2.451,-2.458 3.977,-2.974 4.825,-2.974 1.606,0 2.008,1.916 2.053,2.184 -0.238,0.852 -2.401,4.566 -3.454,6.374 -0.378,0.647 -0.702,1.205 -0.921,1.596 -1.59,2.815 -3.392,6.007 -3.909,9.74 -0.448,3.235 -0.003,6.469 0.494,9.504 0.061,0.369 0.138,0.746 0.22,1.147 0.346,1.692 0.741,3.611 -0.318,4.758 -1.208,1.306 -3.606,1.997 -6.934,1.997 -3.347,0 -6.746,-0.693 -8.051,-0.991 C 6.696,48.802 6.227,48.747 5.779,48.747 3.001,48.746 0.979,50.867 0.503,54.281 0,57.887 2.13,60.58 6.497,61.865 c 3.415,1.004 7.059,1.514 10.83,1.514 2.583,0 5.248,-0.24 7.922,-0.713 0,0 0.397,-0.07 0.397,-0.07 3.055,-0.535 6.516,-1.141 8.55,-4.003 2.137,-3.005 1.83,-6.827 1.556,-10.198 -0.018,-0.242 -0.038,-0.481 -0.056,-0.719 -0.006,-0.087 -0.016,-0.189 -0.026,-0.306 -0.061,-0.742 -0.18,-2.122 -0.086,-3.393 0.133,-1.805 0.6,-2.356 0.867,-2.523 0.287,-0.178 0.636,-0.268 1.042,-0.268 2.09,0 6.055,2.525 10.203,8.168 4.399,5.984 7.66,13.57 9.18,21.361 0.351,1.789 2.387,3.3 4.449,3.3 1.261,0 2.398,-0.546 3.286,-1.575 2.139,-2.479 2.694,-7.668 1.603,-15.006 C 64.559,46.291 55.738,38.163 51.972,34.692 51.317,34.088 50.637,33.463 50.521,33.28 c -0.449,-0.832 -0.845,-3.272 1.441,-10.231 4.338,1.531 9.824,2.627 12.455,2.713 0.066,0.002 0.131,0.003 0.196,0.003 2.988,0 4.8,-2.243 5.046,-4.46 0.211,-1.904 -0.785,-3.439 -2.478,-3.817 z" />
    </g>
    <g
       id="g3392"
       style="fill:#000000;fill-rule:nonzero;stroke:none"
       transform="matrix(1.25,0,0,1.25,380.10502,457.68547)">
      <path
         id="path3394"
         d="m 11.662,23.647 c 1.4,0.05 2.75,-0.151 4.017,-0.547 1.917,-0.602 3.63,-1.663 4.991,-3.073 1.936,-2.003 3.168,-4.687 3.275,-7.677 C 24.003,10.773 23.739,9.256 23.212,7.861 22.916,7.063 22.535,6.303 22.074,5.594 22.082,5.584 22.093,5.572 22.101,5.563 21.364,4.421 20.432,3.416 19.35,2.588 17.457,1.143 15.112,0.242 12.542,0.149 8.453,0 4.779,1.92 2.537,4.959 2.488,5.027 2.44,5.098 2.392,5.169 2.237,5.387 2.087,5.608 1.948,5.836 1.853,5.992 1.765,6.154 1.676,6.315 1.594,6.464 1.51,6.609 1.438,6.764 1.32,7.004 1.212,7.252 1.109,7.502 1.078,7.582 1.042,7.66 1.013,7.739 0.888,8.059 0.782,8.387 0.687,8.724 0.684,8.735 0.68,8.747 0.675,8.759 0.432,9.631 0.272,10.541 0.236,11.485 0,17.963 5.117,23.407 11.662,23.647 z" />
    </g>
    <g
       id="g3396"
       style="fill:#000000;fill-rule:nonzero;stroke:none"
       transform="matrix(1.25,0,0,1.25,406.84377,533.24047)">
      <path
         id="path3398"
         d="M 10.934,17.723 C 10.934,17.723 5.16,6.711 0.548,3.221 0,0 10.638,12.68 10.934,17.723 z" />
    </g>
  </g>
</svg>
