<?xml version="1.0" encoding="UTF-8" standalone="no"?>
<!-- Created with Inkscape (http://www.inkscape.org/) -->

<svg
   xmlns:dc="http://purl.org/dc/elements/1.1/"
   xmlns:cc="http://creativecommons.org/ns#"
   xmlns:rdf="http://www.w3.org/1999/02/22-rdf-syntax-ns#"
   xmlns:svg="http://www.w3.org/2000/svg"
   xmlns="http://www.w3.org/2000/svg"
   xmlns:sodipodi="http://sodipodi.sourceforge.net/DTD/sodipodi-0.dtd"
   xmlns:inkscape="http://www.inkscape.org/namespaces/inkscape"
   width="768.96906"
   height="914.52625"
   id="svg2989"
   version="1.1"
   inkscape:version="0.47 r22583"
   sodipodi:docname="decision.svg">
  <defs
     id="defs2991">
    <inkscape:perspective
       sodipodi:type="inkscape:persp3d"
       inkscape:vp_x="0 : 526.18109 : 1"
       inkscape:vp_y="0 : 1000 : 0"
       inkscape:vp_z="744.09448 : 526.18109 : 1"
       inkscape:persp3d-origin="372.04724 : 350.78739 : 1"
       id="perspective2997" />
    <inkscape:perspective
       id="perspective2984"
       inkscape:persp3d-origin="0.5 : 0.33333333 : 1"
       inkscape:vp_z="1 : 0.5 : 1"
       inkscape:vp_y="0 : 1000 : 0"
       inkscape:vp_x="0 : 0.5 : 1"
       sodipodi:type="inkscape:persp3d" />
  </defs>
  <sodipodi:namedview
     id="base"
     pagecolor="#ffffff"
     bordercolor="#666666"
     borderopacity="1.0"
     inkscape:pageopacity="0.0"
     inkscape:pageshadow="2"
     inkscape:zoom="0.35"
     inkscape:cx="410.91311"
     inkscape:cy="471.54882"
     inkscape:document-units="px"
     inkscape:current-layer="layer1"
     showgrid="false"
     inkscape:window-width="1280"
     inkscape:window-height="949"
     inkscape:window-x="0"
     inkscape:window-y="24"
     inkscape:window-maximized="1" />
  <metadata
     id="metadata2994">
    <rdf:RDF>
      <cc:Work
         rdf:about="">
        <dc:format>image/svg+xml</dc:format>
        <dc:type
           rdf:resource="http://purl.org/dc/dcmitype/StillImage" />
        <dc:title />
      </cc:Work>
    </rdf:RDF>
  </metadata>
  <g
     inkscape:label="Layer 1"
     inkscape:groupmode="layer"
     id="layer1"
     transform="translate(35.913109,-89.384757)">
    <path
       style="fill:#333333;fill-opacity:1;fill-rule:nonzero;stroke:none"
       id="path190"
       inkscape:connector-curvature="0"
       d="m 168.36216,373.87605 c -27.7233,0 -50.26993,22.56534 -50.26993,50.2852 0,27.71986 22.54663,50.2852 50.26993,50.2852 27.72941,0 50.2894,-22.56534 50.2894,-50.2852 0,-27.71986 -22.55999,-50.2852 -50.2894,-50.2852 z m -31.67586,321.0311 0,165.21189 33.68192,0 c -1.54521,6.4527 -3.2798,12.79085 -5.20797,18.93809 -2.06868,6.52906 -4.31338,12.94357 -6.84138,18.97627 -7.21442,17.25809 -16.3929,32.26347 -27.89512,43.33614 l 25.44882,26.45987 c 19.31188,-18.59445 32.46507,-43.60342 41.56299,-69.79601 2.17597,-6.29997 4.1553,-12.59994 5.88379,-18.97627 1.72695,-6.33815 3.30958,-12.6763 4.63257,-18.93809 l 22.49127,0 c -0.23405,6.10906 -0.57998,12.44721 -1.03968,18.93809 -0.44138,6.18542 -1.00953,12.52357 -1.68954,18.97627 -3.23513,30.20166 -9.41444,62.77059 -20.66886,93.0868 l 34.41272,12.7908 c 12.96953,-34.93614 19.84222,-72.04868 23.24802,-105.8776 0.65291,-6.4527 1.17218,-12.79085 1.58836,-18.97627 0.43909,-6.49088 0.756,-12.82903 0.97745,-18.93809 l 19.62154,0 c 1.41272,6.22361 2.98962,12.59994 4.79179,18.93809 1.79072,6.37633 3.79525,12.71448 6.01742,18.97627 7.75087,21.99261 18.23173,42.76342 32.38184,57.92152 l 26.82641,-25.00896 c -7.87305,-8.47632 -14.43265,-19.96899 -19.91172,-32.91256 -2.55817,-6.0327 -4.85288,-12.40903 -6.95287,-18.97627 -1.98545,-6.22361 -3.77235,-12.56176 -5.37597,-18.93809 l 43.27505,0 0,-67.88693 -39.88071,-75.98143 C 290.047,711.66888 198.19308,700.71076 136.6863,694.90715 z M 431.77337,265.74569 c -27.73513,0 -50.29665,22.52715 -50.29665,50.2852 0,27.71986 22.56152,50.2852 50.29665,50.2852 27.71604,0 50.26993,-22.56534 50.26993,-50.2852 0,-27.75805 -22.55389,-50.2852 -50.26993,-50.2852 z m 287.374,327.36925 C 708.2847,574.59685 660.7944,485.93912 660.7944,485.93912 680.2823,469.86465 692.89369,443.51933 685.24591,405.87225 672.72234,344.24711 591.56347,89.384757 325.66282,89.384757 c -23.08843,0 -47.54758,1.909081 -73.49963,6.070878 C 24.263946,131.76636 -115.35553,371.2797 13.054203,601.74399 c 9.175426,12.59993 22.446595,53.72154 78.215439,56.05062 2.23134,0.11455 4.78607,0.22909 7.471,0.38182 5.518388,0.34363 11.867608,0.83999 18.980468,1.41272 5.88226,0.49636 12.22995,1.0309 18.96519,1.67999 80.13827,7.44542 212.88585,23.82533 212.88585,23.82533 l 18.373,35.01255 37.93344,72.316 42.89706,81.78504 c 0,0 110.20362,21.22899 136.70931,25.23806 5.93342,0.87817 11.85921,1.33635 17.66282,1.33635 48.76175,0 89.06628,-32.11074 64.81331,-100.76131 -8.20905,-23.25261 18.63263,-31.76711 18.63263,-48.03248 0,-16.26537 -13.54302,-20.31262 -13.54302,-20.31262 0,0 18.64409,-1.68 18.64409,-22.06898 0,-19.16718 -13.10776,-24.05443 -8.69396,-51.1252 0,0 5.51724,-1.25999 32.24056,-7.21633 20.57226,-4.58179 25.19988,-21.76352 3.90598,-58.15061 z m -408.20739,-157.57557 -33.87473,6.37633 -0.40091,2.25272 c -1.03854,5.72724 -2.54671,11.45449 -4.50543,16.99082 l -0.75218,2.13817 26.09332,22.41262 -11.35139,19.62535 -32.4773,-11.37812 -1.46999,1.71817 c -3.84412,4.46725 -8.03227,8.62905 -12.45866,12.37085 l -1.73917,1.48908 11.43043,32.53075 -19.61428,11.33994 -22.51533,-26.1926 -2.13244,0.72545 c -5.44088,1.94727 -11.12804,3.43635 -16.88506,4.46725 l -2.2447,0.42 -6.4,34.01983 -22.66729,0 -6.43131,-34.17255 -2.2237,-0.42 c -5.73908,-1.10727 -11.35598,-2.59635 -16.65979,-4.50543 l -2.14313,-0.76364 -22.7047,26.42169 -19.639488,-11.33994 11.61982,-33.06529 -1.71054,-1.48908 c -4.37447,-3.77999 -8.3969,-7.82724 -11.96612,-12.0654 l -1.48107,-1.75635 -33.171811,11.64539 -11.342615,-19.62535 26.771806,-22.98534 -0.75026,-2.13817 c -1.816305,-5.11634 -3.273697,-10.61449 -4.313001,-16.26537 l -0.41618,-2.25272 -34.741079,-6.52906 0,-22.6417 34.817061,-6.56724 0.416179,-2.21454 c 1.039304,-5.53633 2.477224,-10.95812 4.31758,-16.189 l 0.75638,-2.13818 -26.871849,-23.0617 11.355978,-19.66353 33.429921,11.75994 1.47496,-1.71818 c 3.59289,-4.19997 7.5737,-8.20905 11.80957,-11.8363 l 1.70901,-1.48908 -11.71374,-33.40893 19.639488,-11.33994 22.99412,26.76532 2.14466,-0.76363 c 5.14993,-1.83272 10.64313,-3.3218 16.29897,-4.39089 l 2.21912,-0.42 6.50576,-34.63073 22.66729,0 6.50156,34.47801 2.2447,0.42 c 5.57948,0.99272 11.12766,2.44362 16.51776,4.31452 l 2.13282,0.76363 22.78069,-26.53623 19.61428,11.33994 -11.532,32.8362 1.7407,1.48909 c 4.32522,3.66543 8.45494,7.75087 12.26852,12.17993 l 1.46999,1.71818 32.76748,-11.53085 11.35139,19.66353 -26.20405,22.48898 0.77509,2.17635 c 1.92817,5.38361 3.46689,11.07267 4.53216,16.87628 l 0.40854,2.21454 33.92819,6.37633 0,22.67988 z m 263.39213,-108.13036 -33.86711,6.37633 -0.39708,2.25272 c -1.03091,5.72724 -2.53145,11.45448 -4.50162,16.99082 l -0.75981,2.13817 26.10096,22.41262 -11.35522,19.62535 -32.47729,-11.41631 -1.47763,1.71818 c -3.81052,4.42907 -7.99905,8.62905 -12.45103,12.40903 l -1.72199,1.48908 11.42395,32.53074 -19.64445,11.33995 -22.48898,-26.23078 -2.13435,0.76363 c -5.4027,1.90908 -11.09558,3.39817 -16.91446,4.46725 l -2.24508,0.42 -6.38015,34.01983 -22.65316,0 -6.44506,-34.21074 -2.23362,-0.42 c -5.70434,-1.06908 -11.31703,-2.55816 -16.66246,-4.50543 l -2.14581,-0.76363 -22.69134,26.45987 -19.62917,-11.33995 11.60721,-33.10346 -1.7029,-1.45091 c -4.3107,-3.70361 -8.3465,-7.78905 -12.0043,-12.10357 l -1.46999,-1.71817 -33.16075,11.64539 -11.33994,-19.62535 26.74241,-22.98534 -0.75218,-2.13817 c -1.81362,-5.23089 -3.24543,-10.72904 -4.2687,-16.26538 l -0.40855,-2.25271 -34.75291,-6.52906 0,-22.67989 34.81019,-6.52905 0.41999,-2.25272 c 1.04236,-5.53633 2.49326,-10.95813 4.34126,-16.15083 l 0.74836,-2.13817 -26.87987,-23.09988 11.3514,-19.62536 33.43565,11.75994 1.46235,-1.75635 c 3.66926,-4.27634 7.65542,-8.24723 11.82867,-11.79812 l 1.71054,-1.48909 -11.71794,-33.4471 19.62917,-11.30176 22.96243,26.76532 2.14581,-0.76363 c 5.2767,-1.8709 10.75958,-3.35999 16.30355,-4.39089 l 2.22599,-0.45818 6.54051,-34.63074 22.65316,0 6.49469,34.5162 2.2489,0.38181 c 5.62034,1.03091 11.17195,2.48181 16.52119,4.35271 l 2.13054,0.72545 22.7677,-26.49805 19.64445,11.30176 -11.55376,32.87438 1.73726,1.48908 c 4.4138,3.7418 8.54505,7.82724 12.26394,12.17994 l 1.47763,1.71818 32.77892,-11.53086 11.35522,19.62536 -26.21551,22.52716 0.76364,2.13817 c 1.96635,5.49815 3.49743,11.18722 4.54361,16.91446 l 0.41236,2.21453 33.92056,6.37633 0,22.67989" />
  </g>
</svg>
