<?xml version="1.0" encoding="UTF-8" standalone="no"?>
<!-- Created with Inkscape (http://www.inkscape.org/) -->

<svg
   xmlns:dc="http://purl.org/dc/elements/1.1/"
   xmlns:cc="http://creativecommons.org/ns#"
   xmlns:rdf="http://www.w3.org/1999/02/22-rdf-syntax-ns#"
   xmlns:svg="http://www.w3.org/2000/svg"
   xmlns="http://www.w3.org/2000/svg"
   xmlns:sodipodi="http://sodipodi.sourceforge.net/DTD/sodipodi-0.dtd"
   xmlns:inkscape="http://www.inkscape.org/namespaces/inkscape"
   width="744.09448819"
   height="1052.3622047"
   id="svg3063"
   version="1.1"
   inkscape:version="0.47 r22583"
   sodipodi:docname="perception.svg">
  <defs
     id="defs3065">
    <inkscape:perspective
       sodipodi:type="inkscape:persp3d"
       inkscape:vp_x="0 : 526.18109 : 1"
       inkscape:vp_y="0 : 1000 : 0"
       inkscape:vp_z="744.09448 : 526.18109 : 1"
       inkscape:persp3d-origin="372.04724 : 350.78739 : 1"
       id="perspective3071" />
    <inkscape:perspective
       id="perspective3058"
       inkscape:persp3d-origin="0.5 : 0.33333333 : 1"
       inkscape:vp_z="1 : 0.5 : 1"
       inkscape:vp_y="0 : 1000 : 0"
       inkscape:vp_x="0 : 0.5 : 1"
       sodipodi:type="inkscape:persp3d" />
  </defs>
  <sodipodi:namedview
     id="base"
     pagecolor="#ffffff"
     bordercolor="#666666"
     borderopacity="1.0"
     inkscape:pageopacity="0.0"
     inkscape:pageshadow="2"
     inkscape:zoom="0.24748737"
     inkscape:cx="78.24557"
     inkscape:cy="601.14863"
     inkscape:document-units="px"
     inkscape:current-layer="layer1"
     showgrid="false"
     inkscape:window-width="613"
     inkscape:window-height="504"
     inkscape:window-x="665"
     inkscape:window-y="464"
     inkscape:window-maximized="0" />
  <metadata
     id="metadata3068">
    <rdf:RDF>
      <cc:Work
         rdf:about="">
        <dc:format>image/svg+xml</dc:format>
        <dc:type
           rdf:resource="http://purl.org/dc/dcmitype/StillImage" />
        <dc:title />
      </cc:Work>
    </rdf:RDF>
  </metadata>
  <g
     inkscape:label="Layer 1"
     inkscape:groupmode="layer"
     id="layer1">
    <path
       style="fill:#333333;fill-opacity:1;fill-rule:nonzero;stroke:none"
       id="path164"
       inkscape:connector-curvature="0"
       d="m 519.40157,793.42129 c -43.1796,40.16707 -88.31028,60.55606 -134.12823,60.55606 -45.82558,0 -90.95245,-20.38899 -134.12823,-60.55606 -11.67594,-10.84358 -22.84024,-23.0617 -33.69528,-35.89072 l -1.05763,167.57915 c 50.33483,37.49436 108.54272,57.27244 168.87351,57.27244 60.33078,0 118.55776,-19.77808 168.8926,-57.27244 l -1.05382,-167.57915 c -10.85885,12.8672 -22.02316,25.04714 -33.70292,35.89072 z m 1.97781,-410.26156 c -29.50294,0 -53.51536,24.01625 -53.51536,53.53064 0,29.47622 24.01242,53.45428 53.51536,53.45428 29.49913,0 53.50391,-23.97806 53.50391,-53.45428 0,-29.51439 -24.00478,-53.53064 -53.50391,-53.53064 z m 0,73.42327 c -11.00012,0 -19.91935,-8.89632 -19.91935,-19.89263 0,-11.03449 8.91923,-19.93081 19.91935,-19.93081 11.00013,0 19.9079,8.89632 19.9079,19.93081 0,10.99631 -8.90777,19.89263 -19.9079,19.89263 z M 385.27334,49.414153 c -161.33645,0 -292.104697,130.772067 -292.104697,292.127607 0,83.04504 34.749087,204.57715 90.417897,305.03301 5.51725,9.92722 11.1834,19.70171 17.09392,29.13257 5.5287,8.89632 11.22922,17.52537 17.07864,25.88715 17.63609,25.16169 36.68491,47.80339 56.87153,66.58875 34.12292,31.76711 71.46455,51.3161 110.64271,51.3161 39.17435,0 76.5198,-19.54899 110.65035,-51.3161 20.18281,-18.78536 39.2278,-41.42706 56.8639,-66.58875 5.86469,-8.36178 11.55758,-16.99083 17.08627,-25.88715 5.90288,-9.43086 11.57285,-19.16717 17.08246,-29.13257 55.67645,-100.45586 90.42173,-221.98797 90.42173,-305.03301 0,-161.35554 -130.76825,-292.127607 -292.10471,-292.127607 z m -14.73429,499.072017 8.54887,-17.37264 6.18542,-12.56175 6.18543,12.56175 8.5565,17.37264 23.38624,47.49794 -76.25634,0 23.39388,-47.49794 z M 249.17112,520.38449 c -13.86374,0 -26.9295,-3.43634 -38.46035,-9.43086 -26.83405,-13.97447 -45.24141,-41.99978 -45.24141,-74.26326 0,-46.19976 37.55545,-83.7323 83.70176,-83.7323 46.16541,0 83.72467,37.53254 83.72467,83.7323 0,33.82892 -20.22099,62.9615 -49.17793,76.13416 -10.54959,4.81089 -22.22171,7.55996 -34.54674,7.55996 z m 171.55004,179.60637 -70.88036,0 -46.44031,-35.39437 163.74571,0 -46.42504,35.39437 z M 559.84737,510.95363 c -11.53467,5.99452 -24.60042,9.43086 -38.46799,9.43086 -12.32884,0 -24.00097,-2.74907 -34.54291,-7.55996 -28.96077,-13.17266 -49.17794,-42.30524 -49.17794,-76.13416 0,-46.19976 37.55927,-83.7323 83.72085,-83.7323 46.15013,0 83.71322,37.53254 83.71322,83.7323 0,32.26348 -18.40737,60.28879 -45.24523,74.26326 z M 249.17112,383.15973 c -29.48385,0 -53.49245,24.01625 -53.49245,53.53064 0,29.47622 24.0086,53.45428 53.49245,53.45428 29.50295,0 53.50773,-23.97806 53.50773,-53.45428 0,-29.51439 -24.00478,-53.53064 -53.50773,-53.53064 z m 0,73.42327 c -10.98867,0 -19.91171,-8.89632 -19.91171,-19.89263 0,-11.03449 8.92304,-19.93081 19.91171,-19.93081 11.02304,0 19.92318,8.89632 19.92318,19.93081 0,10.99631 -8.90014,19.89263 -19.92318,19.89263" />
  </g>
</svg>
